<?xml version="1.0" encoding="UTF-8" standalone="no"?>
<!-- Created with Inkscape (http://www.inkscape.org/) -->

<svg
   xmlns:dc="http://purl.org/dc/elements/1.1/"
   xmlns:cc="http://creativecommons.org/ns#"
   xmlns:rdf="http://www.w3.org/1999/02/22-rdf-syntax-ns#"
   xmlns:svg="http://www.w3.org/2000/svg"
   xmlns="http://www.w3.org/2000/svg"
   xmlns:sodipodi="http://sodipodi.sourceforge.net/DTD/sodipodi-0.dtd"
   xmlns:inkscape="http://www.inkscape.org/namespaces/inkscape"
   width="125.64529mm"
   height="39.320606mm"
   viewBox="0 0 125.64529 39.320607"
   version="1.1"
   id="svg153"
   inkscape:version="0.92.3 (2405546, 2018-03-11)"
   sodipodi:docname="drawing.svg">
  <defs
     id="defs147" />
  <sodipodi:namedview
     id="base"
     pagecolor="#ffffff"
     bordercolor="#666666"
     borderopacity="1.0"
     inkscape:pageopacity="0.0"
     inkscape:pageshadow="2"
     inkscape:zoom="0.35"
     inkscape:cx="-156.84579"
     inkscape:cy="531.4495"
     inkscape:document-units="mm"
     inkscape:current-layer="layer1"
     showgrid="false"
     units="mm"
     fit-margin-top="0"
     fit-margin-left="0"
     fit-margin-right="0"
     fit-margin-bottom="0"
     inkscape:window-width="1853"
     inkscape:window-height="1025"
     inkscape:window-x="67"
     inkscape:window-y="27"
     inkscape:window-maximized="1" />
  <metadata
     id="metadata150">
    <rdf:RDF>
      <cc:Work
         rdf:about="">
        <dc:format>image/svg+xml</dc:format>
        <dc:type
           rdf:resource="http://purl.org/dc/dcmitype/StillImage" />
        <dc:title></dc:title>
      </cc:Work>
    </rdf:RDF>
  </metadata>
  <g
     inkscape:label="Layer 1"
     inkscape:groupmode="layer"
     id="layer1"
     transform="translate(-7.4809237,-250.1254)">
    <g
       id="g304"
       transform="matrix(0.61419896,0,0,0.61419896,7.4857827,250.13359)">
      <path
         id="path159"
         d="m 9.824,1.35 11.3,11.311 c 1.97,1.97 2.28,4.979 0.93,7.28 -0.25,0.42 -0.55,0.819 -0.92,1.189 -0.37,0.37 -0.77,0.68 -1.199,0.93 -2.301,1.351 -5.311,1.04 -7.271,-0.93 l -0.01,0.01 -11.31,-11.31 -0.35,-2.48 2.47,0.36 9.19,9.19 c 1.17,1.17 3.069,1.17 4.24,0 1.17,-1.181 1.17,-3.07 0,-4.24 L 7.704,3.47 7.354,0.99 Z"
         inkscape:connector-curvature="0"
         style="fill:#ccd1d9" />
      <path
         id="path161"
         d="m 21.134,21.13 c 0.37,-0.37 0.67,-0.77 0.92,-1.189 l 9.95,9.939 -2.12,2.13 -9.949,-9.95 c 0.429,-0.25 0.829,-0.56 1.199,-0.93 z"
         inkscape:connector-curvature="0"
         style="fill:#aab2bd" />
      <path
         id="path163"
         d="m 41.244,20.65 0.02,-0.02 2.12,2.12 -0.02,0.02 -9.24,9.24 -2.12,2.12 -6.819,6.83 -2.131,-2.13 6.83,-6.82 2.12,-2.13 z"
         inkscape:connector-curvature="0"
         style="fill:#ccd1d9" />
      <path
         id="path165"
         d="m 41.104,37.58 2.12,2.12 -3.53,3.53 -2.12,-2.12 0.71,-0.71 2.12,-2.12 z"
         inkscape:connector-curvature="0"
         style="fill:#656d78" />
      <path
         id="path167"
         d="m 25.185,40.96 0.699,0.7 -2.12,2.12 -3.53,-3.53 2.12,-2.12 0.7,0.7 z"
         inkscape:connector-curvature="0"
         style="fill:#656d78" />
      <path
         id="path169"
         transform="matrix(0.707,-0.707,0.707,0.707,-14.997,36.204)"
         d="m 34.705,31.768 h 2.998 v 8.875 h -2.998 z"
         inkscape:connector-curvature="0"
         style="fill:#aab2bd" />
      <path
         id="path171"
         d="m 18.814,38.83 1.42,1.42 3.529,3.53 1.421,1.42 -16.47,16.46 v 0.01 C 6.935,63.441 4.074,63.46 2.315,61.7 0.554,59.94 0.575,57.08 2.344,55.3 Z"
         inkscape:connector-curvature="0"
         style="fill:#ed5565" />
      <path
         id="path173"
         d="m 39.694,43.23 3.529,-3.53 1.421,-1.42 17,17.01 c 1.779,1.77 1.79,4.63 0.04,6.39 -1.761,1.761 -4.631,1.75 -6.4,-0.029 l -17,-17 z"
         inkscape:connector-curvature="0"
         style="fill:#ed5565" />
      <path
         id="path175"
         d="m 58.994,5.01 c 5.66,5.66 3.89,8.141 3.19,8.851 L 51.164,24.88 c -1.56,1.55 -4.1,1.55 -5.66,0 l -2.12,-2.13 -2.12,-2.12 -2.119,-2.12 c -1.561,-1.55 -1.561,-4.1 0,-5.649 L 50.165,1.831 C 50.864,1.13 53.344,-0.64 58.994,5.01 Z"
         inkscape:connector-curvature="0"
         style="fill:#e6e9ed" />
      <path
         id="path177"
         d="m 25.182,41.957 c -0.256,0 -0.512,-0.098 -0.707,-0.293 -0.391,-0.391 -0.391,-1.023 0,-1.414 L 42.663,22.064 c 0.391,-0.391 1.023,-0.391 1.414,0 0.391,0.391 0.391,1.023 0,1.414 L 25.889,41.664 c -0.196,0.195 -0.451,0.293 -0.707,0.293 z"
         inkscape:connector-curvature="0" />
      <path
         id="path179"
         d="m 23.061,39.833 c -0.256,0 -0.512,-0.098 -0.707,-0.293 -0.391,-0.391 -0.391,-1.023 0,-1.414 L 40.538,19.941 c 0.391,-0.391 1.023,-0.391 1.414,0 0.391,0.391 0.391,1.023 0,1.414 L 23.768,39.54 c -0.196,0.195 -0.452,0.293 -0.707,0.293 z"
         inkscape:connector-curvature="0" />
      <path
         id="path181"
         d="M 5.485,64.006 C 4.078,64.007 2.675,63.474 1.609,62.407 0.569,61.367 0,59.98 0.007,58.503 c 0.008,-1.474 0.588,-2.86 1.634,-3.906 0.391,-0.391 1.023,-0.391 1.414,0 0.391,0.391 0.391,1.023 0,1.414 -0.671,0.671 -1.043,1.56 -1.048,2.502 -0.004,0.939 0.356,1.82 1.017,2.48 0.655,0.655 1.529,1.016 2.461,1.016 h 0.019 c 0.942,-0.005 1.832,-0.377 2.503,-1.048 0.391,-0.391 1.023,-0.391 1.414,0 0.391,0.391 0.391,1.023 0,1.414 -1.088,1.087 -2.514,1.631 -3.936,1.631 z"
         inkscape:connector-curvature="0" />
      <path
         id="path183"
         d="m 8.713,62.666 c -0.256,0 -0.512,-0.098 -0.707,-0.293 -0.391,-0.391 -0.391,-1.023 0,-1.414 L 24.475,44.491 c 0.391,-0.391 1.023,-0.391 1.414,0 0.391,0.391 0.391,1.023 0,1.414 L 9.42,62.373 c -0.195,0.195 -0.451,0.293 -0.707,0.293 z"
         inkscape:connector-curvature="0" />
      <path
         id="path185"
         d="m 25.182,46.198 c -0.256,0 -0.512,-0.098 -0.707,-0.293 L 18.11,39.543 c -0.391,-0.391 -0.391,-1.023 0,-1.414 0.391,-0.391 1.023,-0.391 1.414,0 l 6.365,6.362 c 0.391,0.391 0.391,1.023 0,1.414 -0.196,0.196 -0.451,0.293 -0.707,0.293 z"
         inkscape:connector-curvature="0" />
      <path
         id="path187"
         d="m 2.35,56.303 c -0.256,0 -0.512,-0.098 -0.707,-0.293 -0.391,-0.391 -0.391,-1.023 0,-1.414 L 18.11,38.129 c 0.391,-0.391 1.023,-0.391 1.414,0 0.391,0.391 0.391,1.023 0,1.414 L 3.057,56.01 C 2.861,56.205 2.605,56.303 2.35,56.303 Z"
         inkscape:connector-curvature="0" />
      <path
         id="path189"
         d="m 20.232,41.251 c -0.256,0 -0.512,-0.098 -0.707,-0.293 -0.391,-0.391 -0.391,-1.023 0,-1.414 l 2.121,-2.122 c 0.391,-0.391 1.023,-0.391 1.414,0 0.391,0.391 0.391,1.023 0,1.414 l -2.121,2.122 c -0.195,0.195 -0.451,0.293 -0.707,0.293 z"
         inkscape:connector-curvature="0" />
      <path
         id="path191"
         d="m 25.889,42.663 c -0.256,0 -0.512,-0.098 -0.707,-0.293 l -3.535,-3.534 c -0.391,-0.391 -0.391,-1.023 0,-1.414 0.391,-0.391 1.023,-0.391 1.414,0 l 3.535,3.534 c 0.391,0.391 0.391,1.023 0,1.414 -0.196,0.195 -0.451,0.293 -0.707,0.293 z"
         inkscape:connector-curvature="0" />
      <path
         id="path193"
         d="m 23.766,44.783 c -0.256,0 -0.513,-0.098 -0.708,-0.293 -0.39,-0.392 -0.39,-1.024 0.001,-1.415 l 2.123,-2.12 c 0.391,-0.389 1.024,-0.39 1.415,0.001 0.39,0.392 0.39,1.024 -0.001,1.415 l -2.123,2.12 c -0.196,0.195 -0.452,0.292 -0.707,0.292 z"
         inkscape:connector-curvature="0" />
      <path
         id="path195"
         d="m 5.558,59.486 c -0.553,0 -1.005,-0.447 -1.005,-1 0,-0.553 0.442,-1 0.994,-1 h 0.011 c 0.552,0 1,0.447 1,1 0,0.553 -0.449,1 -1,1 z"
         inkscape:connector-curvature="0" />
      <path
         id="path197"
         d="m 48.335,27.045 c -1.338,0 -2.594,-0.519 -3.534,-1.459 L 38.436,19.224 C 36.489,17.273 36.489,14.1 38.435,12.151 L 49.455,1.13 c 0.391,-0.391 1.023,-0.391 1.414,0 0.391,0.391 0.391,1.023 0,1.414 L 39.85,13.564 c -1.168,1.17 -1.168,3.074 10e-4,4.246 l 6.364,6.361 c 1.17,1.168 3.07,1.168 4.24,0 L 61.476,13.15 c 0.391,-0.391 1.023,-0.391 1.414,0 0.391,0.391 0.391,1.023 0,1.414 L 51.869,25.586 c -0.94,0.94 -2.196,1.459 -3.534,1.459 z"
         inkscape:connector-curvature="0" />
      <path
         id="path199"
         d="m 62.184,14.858 c -0.256,0 -0.511,-0.098 -0.706,-0.292 -0.392,-0.39 -0.392,-1.023 -0.002,-1.414 1.327,-1.331 0.137,-4.109 -3.185,-7.431 -3.318,-3.317 -6.093,-4.507 -7.422,-3.177 -0.391,0.389 -1.024,0.39 -1.415,-10e-4 -0.39,-0.392 -0.39,-1.024 10e-4,-1.415 1.322,-1.318 4.409,-2.662 10.25,3.179 5.845,5.844 4.505,8.935 3.187,10.257 -0.196,0.197 -0.452,0.294 -0.708,0.294 z"
         inkscape:connector-curvature="0" />
      <path
         id="path201"
         d="m 44.094,15.979 c -0.256,0 -0.512,-0.098 -0.707,-0.293 -0.391,-0.391 -0.391,-1.023 0,-1.414 L 50.869,6.79 c 0.391,-0.391 1.023,-0.391 1.414,0 0.391,0.391 0.391,1.023 0,1.414 l -7.482,7.482 c -0.196,0.196 -0.451,0.293 -0.707,0.293 z"
         inkscape:connector-curvature="0" />
      <path
         id="path203"
         d="m 46.564,18.448 c -0.256,0 -0.512,-0.098 -0.707,-0.293 -0.391,-0.391 -0.391,-1.023 0,-1.414 l 7.48,-7.482 c 0.391,-0.391 1.023,-0.391 1.414,0 0.391,0.391 0.391,1.023 0,1.414 l -7.48,7.482 c -0.195,0.196 -0.451,0.293 -0.707,0.293 z"
         inkscape:connector-curvature="0" />
      <path
         id="path205"
         d="m 49.041,20.927 c -0.256,0 -0.512,-0.098 -0.707,-0.293 -0.391,-0.391 -0.391,-1.023 0,-1.414 l 7.482,-7.481 c 0.391,-0.391 1.023,-0.391 1.414,0 0.391,0.391 0.391,1.023 0,1.414 l -7.482,7.481 c -0.195,0.195 -0.451,0.293 -0.707,0.293 z"
         inkscape:connector-curvature="0" />
      <path
         id="path207"
         d="m 21.139,13.661 c -0.256,0 -0.512,-0.098 -0.707,-0.293 L 9.119,2.055 c -0.391,-0.391 -0.391,-1.023 0,-1.414 0.391,-0.391 1.023,-0.391 1.414,0 l 11.313,11.313 c 0.391,0.391 0.391,1.023 0,1.414 -0.196,0.195 -0.451,0.293 -0.707,0.293 z"
         inkscape:connector-curvature="0" />
      <path
         id="path209"
         d="m 12.658,22.142 c -0.256,0 -0.512,-0.098 -0.707,-0.293 L 0.639,10.536 c -0.391,-0.391 -0.391,-1.023 0,-1.414 0.391,-0.391 1.023,-0.391 1.414,0 l 11.313,11.313 c 0.391,0.391 0.391,1.023 0,1.414 -0.196,0.195 -0.452,0.293 -0.708,0.293 z"
         inkscape:connector-curvature="0" />
      <path
         id="path211"
         d="m 16.896,13.659 c -0.256,0 -0.512,-0.098 -0.707,-0.293 L 6.998,4.175 C 6.607,3.784 6.607,3.152 6.998,2.761 7.389,2.37 8.021,2.37 8.412,2.761 l 9.191,9.191 c 0.391,0.391 0.391,1.023 0,1.414 -0.195,0.196 -0.451,0.293 -0.707,0.293 z"
         inkscape:connector-curvature="0" />
      <path
         id="path213"
         d="m 12.656,17.899 c -0.256,0 -0.512,-0.098 -0.707,-0.293 L 2.76,8.416 c -0.391,-0.391 -0.391,-1.023 0,-1.414 0.391,-0.391 1.023,-0.391 1.414,0 l 9.189,9.19 c 0.391,0.391 0.391,1.023 0,1.414 -0.195,0.196 -0.451,0.293 -0.707,0.293 z"
         inkscape:connector-curvature="0" />
      <path
         id="path215"
         d="m 40.404,39.284 c -0.256,0 -0.512,-0.098 -0.707,-0.293 l -6.273,-6.274 c -0.391,-0.391 -0.391,-1.023 0,-1.414 0.391,-0.391 1.023,-0.391 1.414,0 l 6.273,6.274 c 0.391,0.391 0.391,1.023 0,1.414 -0.195,0.196 -0.451,0.293 -0.707,0.293 z"
         inkscape:connector-curvature="0" />
      <path
         id="path217"
         d="m 32.008,30.887 c -0.256,0 -0.512,-0.098 -0.707,-0.293 l -9.947,-9.948 c -0.391,-0.391 -0.391,-1.023 0,-1.414 0.391,-0.391 1.023,-0.391 1.414,0 l 9.947,9.948 c 0.391,0.391 0.391,1.023 0,1.414 -0.195,0.195 -0.451,0.293 -0.707,0.293 z"
         inkscape:connector-curvature="0" />
      <path
         id="path219"
         d="m 38.281,41.405 c -0.256,0 -0.512,-0.098 -0.707,-0.293 l -6.271,-6.271 c -0.391,-0.391 -0.391,-1.023 0,-1.414 0.391,-0.391 1.023,-0.391 1.414,0 l 6.271,6.271 c 0.391,0.391 0.391,1.023 0,1.414 -0.195,0.196 -0.451,0.293 -0.707,0.293 z"
         inkscape:connector-curvature="0" />
      <path
         id="path221"
         d="m 29.885,33.01 c -0.256,0 -0.512,-0.098 -0.707,-0.293 l -9.947,-9.946 c -0.391,-0.391 -0.391,-1.023 0,-1.414 0.391,-0.391 1.023,-0.391 1.414,0 l 9.947,9.946 c 0.391,0.391 0.391,1.023 0,1.414 -0.196,0.195 -0.451,0.293 -0.707,0.293 z"
         inkscape:connector-curvature="0" />
      <path
         id="path223"
         d="m 58.512,63.991 c -1.422,0 -2.847,-0.544 -3.934,-1.631 -0.391,-0.391 -0.391,-1.023 0,-1.414 0.391,-0.391 1.023,-0.391 1.414,0 1.385,1.383 3.619,1.396 4.982,0.031 1.365,-1.365 1.351,-3.601 -0.031,-4.982 -0.391,-0.391 -0.391,-1.023 0,-1.414 0.391,-0.391 1.023,-0.391 1.414,0 2.162,2.162 2.176,5.666 0.031,7.811 -1.066,1.066 -2.469,1.599 -3.876,1.599 z"
         inkscape:connector-curvature="0" />
      <path
         id="path225"
         d="m 61.648,56.288 c -0.256,0 -0.512,-0.098 -0.707,-0.293 L 43.939,38.991 c -0.391,-0.391 -0.391,-1.023 0,-1.414 0.391,-0.391 1.023,-0.391 1.414,0 l 17.002,17.004 c 0.391,0.391 0.391,1.023 0,1.414 -0.195,0.195 -0.451,0.293 -0.707,0.293 z"
         inkscape:connector-curvature="0" />
      <path
         id="path227"
         d="m 38.283,45.649 c -0.256,0 -0.512,-0.098 -0.707,-0.293 -0.391,-0.391 -0.391,-1.023 0,-1.414 l 6.363,-6.365 c 0.391,-0.391 1.023,-0.391 1.414,0 0.391,0.391 0.391,1.023 0,1.414 l -6.363,6.365 c -0.195,0.196 -0.451,0.293 -0.707,0.293 z"
         inkscape:connector-curvature="0" />
      <path
         id="path229"
         d="m 55.285,62.651 c -0.256,0 -0.512,-0.098 -0.707,-0.293 L 37.576,45.356 c -0.391,-0.391 -0.391,-1.023 0,-1.414 0.391,-0.391 1.023,-0.391 1.414,0 l 17.002,17.002 c 0.391,0.391 0.391,1.023 0,1.414 -0.195,0.196 -0.451,0.293 -0.707,0.293 z"
         inkscape:connector-curvature="0" />
      <path
         id="path231"
         d="m 39.697,44.233 c -0.256,0 -0.512,-0.098 -0.707,-0.293 l -2.121,-2.121 c -0.391,-0.391 -0.391,-1.023 0,-1.414 0.391,-0.391 1.023,-0.391 1.414,0 l 2.121,2.121 c 0.391,0.391 0.391,1.023 0,1.414 -0.195,0.196 -0.451,0.293 -0.707,0.293 z"
         inkscape:connector-curvature="0" />
      <path
         id="path233"
         d="m 37.576,42.112 c -0.256,0 -0.512,-0.098 -0.707,-0.293 -0.391,-0.391 -0.391,-1.023 0,-1.414 l 3.533,-3.535 c 0.391,-0.391 1.023,-0.391 1.414,0 0.391,0.391 0.391,1.023 0,1.414 l -3.533,3.535 c -0.195,0.196 -0.451,0.293 -0.707,0.293 z"
         inkscape:connector-curvature="0" />
      <path
         id="path235"
         d="m 43.23,40.7 c -0.256,0 -0.512,-0.098 -0.707,-0.293 l -2.121,-2.123 c -0.391,-0.391 -0.391,-1.024 0,-1.414 0.391,-0.391 1.023,-0.391 1.414,0 l 2.121,2.123 c 0.391,0.391 0.391,1.024 0,1.414 -0.195,0.196 -0.451,0.293 -0.707,0.293 z"
         inkscape:connector-curvature="0" />
      <path
         id="path237"
         d="m 58.499,59.474 c -0.553,0 -1.005,-0.447 -1.005,-1 0,-0.553 0.442,-1 0.994,-1 h 0.011 c 0.552,0 1,0.447 1,1 0,0.553 -0.448,1 -1,1 z"
         inkscape:connector-curvature="0" />
      <path
         id="path239"
         d="M 9.827,2.348 C 9.78,2.348 9.731,2.345 9.683,2.338 L 7.211,1.981 C 6.664,1.902 6.285,1.396 6.363,0.849 6.443,0.304 6.953,-0.074 7.496,0.001 l 2.473,0.356 c 0.547,0.079 0.926,0.586 0.848,1.133 -0.073,0.498 -0.501,0.858 -0.99,0.858 z"
         inkscape:connector-curvature="0" />
      <path
         id="path241"
         d="m 7.704,4.468 c -0.49,0 -0.918,-0.36 -0.989,-0.859 L 6.363,1.132 C 6.286,0.585 6.666,0.079 7.213,0.001 7.764,-0.079 8.266,0.304 8.344,0.851 L 8.696,3.328 C 8.773,3.875 8.393,4.381 7.846,4.459 7.798,4.465 7.751,4.468 7.704,4.468 Z"
         inkscape:connector-curvature="0" />
      <path
         id="path243"
         d="M 3.466,8.71 C 3.419,8.71 3.37,8.707 3.322,8.699 L 0.85,8.342 C 0.303,8.264 -0.076,7.756 0.003,7.21 0.081,6.663 0.587,6.276 1.135,6.363 L 3.608,6.72 C 4.155,6.798 4.534,7.306 4.455,7.852 4.383,8.352 3.955,8.71 3.466,8.71 Z"
         inkscape:connector-curvature="0" />
      <path
         id="path245"
         d="m 1.343,10.83 c -0.49,0 -0.918,-0.36 -0.989,-0.859 L 0.002,7.493 C -0.075,6.946 0.305,6.44 0.852,6.362 1.397,6.282 1.905,6.665 1.983,7.212 L 2.335,9.69 C 2.412,10.237 2.032,10.743 1.485,10.821 1.437,10.827 1.39,10.83 1.343,10.83 Z"
         inkscape:connector-curvature="0" />
      <path
         id="path247"
         d="m 14.773,18.772 c -1.024,0 -2.048,-0.389 -2.826,-1.168 -0.391,-0.391 -0.391,-1.023 0,-1.414 0.391,-0.391 1.023,-0.391 1.414,0 0.78,0.777 2.047,0.778 2.827,-0.001 0.777,-0.778 0.777,-2.046 -10e-4,-2.825 -0.391,-0.391 -0.391,-1.023 0,-1.414 0.391,-0.391 1.023,-0.391 1.414,0 1.559,1.559 1.559,4.095 0,5.654 -0.78,0.78 -1.804,1.168 -2.828,1.168 z"
         inkscape:connector-curvature="0" />
      <path
         id="path249"
         d="m 16.898,23.89 c -0.001,0 -0.001,0 -0.002,0 -1.867,-0.001 -3.622,-0.729 -4.941,-2.049 -0.391,-0.391 -0.391,-1.024 0,-1.414 0.391,-0.391 1.023,-0.391 1.414,0 0.942,0.943 2.195,1.463 3.528,1.463 h 0.001 c 1.333,0 2.585,-0.519 3.527,-1.461 0.941,-0.942 1.46,-2.195 1.46,-3.528 0,-1.334 -0.52,-2.587 -1.462,-3.529 -0.391,-0.391 -0.391,-1.023 0,-1.414 0.391,-0.391 1.023,-0.391 1.414,0 1.32,1.319 2.048,3.075 2.048,4.943 10e-4,1.867 -0.727,3.623 -2.046,4.942 -1.319,1.32 -3.073,2.047 -4.941,2.047 z"
         inkscape:connector-curvature="0" />
    </g>
    <text
       xml:space="preserve"
       style="font-style:normal;font-variant:normal;font-weight:normal;font-stretch:normal;font-size:22.49205208px;line-height:1.25;font-family:Dyuthi;-inkscape-font-specification:'Dyuthi, Normal';font-variant-ligatures:normal;font-variant-caps:normal;font-variant-numeric:normal;font-feature-settings:normal;text-align:start;letter-spacing:0px;word-spacing:0px;writing-mode:lr-tb;text-anchor:start;fill:#000000;fill-opacity:1;stroke:none;stroke-width:0.56230497"
       x="53.755638"
       y="267.85779"
       id="text12-1"><tspan
         sodipodi:role="line"
         id="tspan10-2"
         x="53.755638"
         y="267.85779"
         style="font-style:normal;font-variant:normal;font-weight:normal;font-stretch:normal;font-size:22.49205208px;font-family:Dyuthi;-inkscape-font-specification:'Dyuthi, Normal';font-variant-ligatures:normal;font-variant-caps:normal;font-variant-numeric:normal;font-feature-settings:normal;text-align:start;writing-mode:lr-tb;text-anchor:start;stroke-width:0.56230497">Pancho's</tspan></text>
    <text
       xml:space="preserve"
       style="font-style:normal;font-variant:normal;font-weight:normal;font-stretch:normal;font-size:22.49205208px;line-height:1.25;font-family:Dyuthi;-inkscape-font-specification:'Dyuthi, Normal';font-variant-ligatures:normal;font-variant-caps:normal;font-variant-numeric:normal;font-feature-settings:normal;text-align:start;letter-spacing:0px;word-spacing:0px;writing-mode:lr-tb;text-anchor:start;fill:#000000;fill-opacity:1;stroke:none;stroke-width:0.56230497"
       x="53.60445"
       y="286.62442"
       id="text12-1-4"><tspan
         sodipodi:role="line"
         id="tspan10-2-9"
         x="53.60445"
         y="286.62442"
         style="font-style:normal;font-variant:normal;font-weight:normal;font-stretch:normal;font-size:22.49205208px;font-family:Dyuthi;-inkscape-font-specification:'Dyuthi, Normal';font-variant-ligatures:normal;font-variant-caps:normal;font-variant-numeric:normal;font-feature-settings:normal;text-align:start;writing-mode:lr-tb;text-anchor:start;stroke-width:0.56230497">Pinchos</tspan></text>
  </g>
</svg>
